<svg width="48" height="49" viewBox="0 0 48 49" fill="none" xmlns="http://www.w3.org/2000/svg">
<path d="M38 22.5H10C7.79086 22.5 6 24.2909 6 26.5V40.5C6 42.7091 7.79086 44.5 10 44.5H38C40.2091 44.5 42 42.7091 42 40.5V26.5C42 24.2909 40.2091 22.5 38 22.5Z" stroke="#22282A" stroke-width="2" stroke-linecap="round" stroke-linejoin="round"/>
<path d="M14 22.5V14.5C14 11.8478 15.0536 9.3043 16.9289 7.42893C18.8043 5.55357 21.3478 4.5 24 4.5C26.6522 4.5 29.1957 5.55357 31.0711 7.42893C32.9464 9.3043 34 11.8478 34 14.5V22.5" stroke="#22282A" stroke-width="2" stroke-linecap="round" stroke-linejoin="round"/>
</svg>
