<svg width="48" height="49" viewBox="0 0 48 49" fill="none" xmlns="http://www.w3.org/2000/svg">
<path d="M33 19.3L15 8.92004" stroke="#22282A" stroke-width="2" stroke-linecap="round" stroke-linejoin="round"/>
<path d="M42 32.5V16.5C41.9993 15.7986 41.8141 15.1097 41.4631 14.5024C41.112 13.8951 40.6075 13.3908 40 13.04L26 5.04005C25.3919 4.68898 24.7021 4.50415 24 4.50415C23.2979 4.50415 22.6081 4.68898 22 5.04005L8 13.04C7.39253 13.3908 6.88796 13.8951 6.53692 14.5024C6.18589 15.1097 6.00072 15.7986 6 16.5V32.5C6.00072 33.2015 6.18589 33.8904 6.53692 34.4977C6.88796 35.105 7.39253 35.6093 8 35.96L22 43.96C22.6081 44.3111 23.2979 44.4959 24 44.4959C24.7021 44.4959 25.3919 44.3111 26 43.96L40 35.96C40.6075 35.6093 41.112 35.105 41.4631 34.4977C41.8141 33.8904 41.9993 33.2015 42 32.5Z" stroke="#22282A" stroke-width="2" stroke-linecap="round" stroke-linejoin="round"/>
<path d="M6.53998 14.42L24 24.52L41.46 14.42" stroke="#22282A" stroke-width="2" stroke-linecap="round" stroke-linejoin="round"/>
<path d="M24 44.66V24.5" stroke="#22282A" stroke-width="2" stroke-linecap="round" stroke-linejoin="round"/>
</svg>
